<svg width="600" height="130" viewBox="0 0 600 130" fill="none" xmlns="http://www.w3.org/2000/svg">
<g clip-path="url(#clip0_3_2)">
<path d="M86.9062 11H21.0938C9.44399 11 0 20.444 0 32.0938V97.9062C0 109.556 9.44399 119 21.0938 119H86.9062C98.556 119 108 109.556 108 97.9062V32.0938C108 20.444 98.556 11 86.9062 11Z" fill="url(#paint0_linear_3_2)"/>
<path d="M55.8196 96.5455C54.7881 97.5856 53.1065 97.5856 52.075 96.5455L27.028 71.2863C25.3778 69.6221 26.5566 66.793 28.9002 66.793H78.9943C81.3379 66.793 82.5168 69.6221 80.8666 71.2863L55.8196 96.5455Z" fill="#FAFAFA"/>
<path d="M67.8164 34.4141H40.0781C38.6219 34.4141 37.4414 35.5946 37.4414 37.0508V68.2695C37.4414 69.7257 38.6219 70.9062 40.0781 70.9062H67.8164C69.2726 70.9062 70.4531 69.7257 70.4531 68.2695V37.0508C70.4531 35.5946 69.2726 34.4141 67.8164 34.4141Z" fill="#FAFAFA"/>
</g>
<defs>
<linearGradient id="paint0_linear_3_2" x1="13.6582" y1="26.6621" x2="97.1367" y2="102.02" gradientUnits="userSpaceOnUse">
<stop stop-color="#4444FF"/>
<stop offset="1" stop-color="#FF43D0"/>
</linearGradient>
<clipPath id="clip0_3_2">
<rect width="108" height="108" fill="white" transform="translate(0 11)"/>
</clipPath>
</defs>
</svg>
